<?xml version="1.0" encoding="UTF-8" standalone="no"?> <svg width="64" height="64" viewBox="0 0 64 64" fill="none" xmlns="http://www.w3.org/2000/svg">
<path d="M60 58H6V4C6 3.46957 5.78929 2.96086 5.41421 2.58579C5.03914 2.21071 4.53043 2 4 2C3.46957 2 2.96086 2.21071 2.58579 2.58579C2.21071 2.96086 2 3.46957 2 4V60C2 60.5304 2.21071 61.0391 2.58579 61.4142C2.96086 61.7893 3.46957 62 4 62H60C60.5304 62 61.0391 61.7893 61.4142 61.4142C61.7893 61.0391 62 60.5304 62 60C62 59.4696 61.7893 58.9609 61.4142 58.5858C61.0391 58.2107 60.5304 58 60 58Z" fill="black"/>
<path d="M13.5401 50.4501C13.8265 50.4502 14.1095 50.3889 14.3701 50.2701L33.0001 41.7901C33.357 41.6275 33.6582 41.3635 33.8662 41.031C34.0742 40.6985 34.1799 40.3122 34.1701 39.9201L33.8001 25.3101L51.2601 17.3701C51.7428 17.15 52.1183 16.7471 52.3039 16.2502C52.4896 15.7532 52.4702 15.2028 52.2501 14.7201C52.03 14.2374 51.6271 13.862 51.1301 13.6763C50.6332 13.4906 50.0828 13.51 49.6001 13.7301L31.0001 22.2101C30.6432 22.3728 30.342 22.6368 30.134 22.9692C29.926 23.3017 29.8203 23.688 29.8301 24.0801L30.2001 38.6901L12.7101 46.6301C12.2944 46.8195 11.9561 47.1455 11.7514 47.5539C11.5467 47.9623 11.4879 48.4284 11.5849 48.8748C11.6819 49.3212 11.9288 49.7209 12.2845 50.0075C12.6402 50.2941 13.0833 50.4503 13.5401 50.4501V50.4501Z" fill="black"/>
</svg>
