<?xml version="1.0" encoding="UTF-8" standalone="no"?>
<!DOCTYPE svg PUBLIC "-//W3C//DTD SVG 1.1//EN" "http://www.w3.org/Graphics/SVG/1.1/DTD/svg11.dtd">
<svg width="100%" height="100%" viewBox="0 0 64 64" version="1.1" xmlns="http://www.w3.org/2000/svg" xmlns:xlink="http://www.w3.org/1999/xlink" xml:space="preserve" xmlns:serif="http://www.serif.com/" style="fill-rule:evenodd;clip-rule:evenodd;stroke-linejoin:round;stroke-miterlimit:2;">
    <path d="M60,58L6,58L6,4C6,3.47 5.789,2.961 5.414,2.586C5.039,2.211 4.53,2 4,2C3.47,2 2.961,2.211 2.586,2.586C2.211,2.961 2,3.47 2,4L2,60C2,60.53 2.211,61.039 2.586,61.414C2.961,61.789 3.47,62 4,62L60,62C60.53,62 61.039,61.789 61.414,61.414C61.789,61.039 62,60.53 62,60C62,59.47 61.789,58.961 61.414,58.586C61.039,58.211 60.53,58 60,58Z" style="fill:rgb(211,211,211);fill-rule:nonzero;"/>
    <path d="M13.54,50.45C13.826,50.45 14.11,50.389 14.37,50.27L33,41.79C33.357,41.628 33.658,41.364 33.866,41.031C34.074,40.699 34.18,40.312 34.17,39.92L33.8,25.31L51.26,17.37C51.743,17.15 52.118,16.747 52.304,16.25C52.49,15.753 52.47,15.203 52.25,14.72C52.03,14.237 51.627,13.862 51.13,13.676C50.633,13.491 50.083,13.51 49.6,13.73L31,22.21C30.643,22.373 30.342,22.637 30.134,22.969C29.926,23.302 29.82,23.688 29.83,24.08L30.2,38.69L12.71,46.63C12.294,46.82 11.956,47.146 11.751,47.554C11.547,47.962 11.488,48.428 11.585,48.875C11.682,49.321 11.929,49.721 12.285,50.008C12.64,50.294 13.083,50.45 13.54,50.45Z" style="fill:rgb(211,211,211);fill-rule:nonzero;"/>
</svg>
