<?xml version="1.0" encoding="UTF-8" standalone="no"?>
<!DOCTYPE svg PUBLIC "-//W3C//DTD SVG 1.1//EN" "http://www.w3.org/Graphics/SVG/1.1/DTD/svg11.dtd">
<svg width="100%" height="100%" viewBox="0 0 56 56" version="1.1" xmlns="http://www.w3.org/2000/svg" xmlns:xlink="http://www.w3.org/1999/xlink" xml:space="preserve" xmlns:serif="http://www.serif.com/" style="fill-rule:evenodd;clip-rule:evenodd;stroke-linejoin:round;stroke-miterlimit:2;">
    <path d="M10.902,26.066L21.59,26.066C24.566,26.066 26.066,24.566 26.066,21.473L26.066,10.996C26.066,7.902 24.566,6.426 21.59,6.426L10.902,6.426C7.926,6.426 6.426,7.902 6.426,10.996L6.426,21.473C6.426,24.566 7.926,26.066 10.902,26.066ZM34.433,26.066L45.098,26.066C48.098,26.066 49.574,24.566 49.574,21.473L49.574,10.996C49.574,7.902 48.098,6.426 45.098,6.426L34.433,6.426C31.457,6.426 29.957,7.902 29.957,10.996L29.957,21.473C29.957,24.566 31.457,26.066 34.433,26.066ZM10.949,22.762C10.129,22.762 9.73,22.34 9.73,21.473L9.73,10.996C9.73,10.152 10.129,9.73 10.949,9.73L21.519,9.73C22.34,9.73 22.762,10.152 22.762,10.996L22.762,21.473C22.762,22.34 22.34,22.762 21.519,22.762L10.949,22.762ZM34.48,22.762C33.66,22.762 33.262,22.34 33.262,21.473L33.262,10.996C33.262,10.152 33.66,9.73 34.48,9.73L45.074,9.73C45.871,9.73 46.269,10.152 46.269,10.996L46.269,21.473C46.269,22.34 45.871,22.762 45.074,22.762L34.48,22.762ZM10.902,49.574L21.59,49.574C24.566,49.574 26.066,48.098 26.066,45.004L26.066,34.504C26.066,31.434 24.566,29.934 21.59,29.934L10.902,29.934C7.926,29.934 6.426,31.434 6.426,34.504L6.426,45.004C6.426,48.098 7.926,49.574 10.902,49.574ZM34.433,49.574L45.098,49.574C48.098,49.574 49.574,48.098 49.574,45.004L49.574,34.504C49.574,31.434 48.098,29.934 45.098,29.934L34.433,29.934C31.457,29.934 29.957,31.434 29.957,34.504L29.957,45.004C29.957,48.098 31.457,49.574 34.433,49.574ZM10.949,46.27C10.129,46.27 9.73,45.848 9.73,45.004L9.73,34.527C9.73,33.66 10.129,33.238 10.949,33.238L21.519,33.238C22.34,33.238 22.762,33.66 22.762,34.527L22.762,45.004C22.762,45.848 22.34,46.27 21.519,46.27L10.949,46.27ZM34.48,46.27C33.66,46.27 33.262,45.848 33.262,45.004L33.262,34.527C33.262,33.66 33.66,33.238 34.48,33.238L45.074,33.238C45.871,33.238 46.269,33.66 46.269,34.527L46.269,45.004C46.269,45.848 45.871,46.27 45.074,46.27L34.48,46.27Z" style="fill:white;fill-rule:nonzero;"/>
</svg>
