<?xml version="1.0" encoding="UTF-8" standalone="no"?>
<!DOCTYPE svg PUBLIC "-//W3C//DTD SVG 1.1//EN" "http://www.w3.org/Graphics/SVG/1.1/DTD/svg11.dtd">
<svg width="100%" height="100%" viewBox="0 0 26 26" version="1.1" xmlns="http://www.w3.org/2000/svg" xmlns:xlink="http://www.w3.org/1999/xlink" xml:space="preserve" xmlns:serif="http://www.serif.com/" style="fill-rule:evenodd;clip-rule:evenodd;stroke-linejoin:round;stroke-miterlimit:2;">
    <path d="M24.25,1L12,1C11.586,1 11.25,1.336 11.25,1.75L11.25,5.813L1.75,5.813C1.336,5.813 1,6.148 1,6.563L1,24.25C1,24.664 1.336,25 1.75,25L13.995,25C14.409,25 14.745,24.664 14.745,24.25L14.745,20.194L24.25,20.194C24.664,20.194 25,19.858 25,19.444L25,1.75C25,1.336 24.664,1 24.25,1ZM13.245,23.5L2.5,23.5L2.5,15.906L8.296,15.906L5.889,18.314C5.693,18.51 5.693,18.826 5.889,19.021C5.986,19.119 6.114,19.168 6.242,19.168C6.37,19.168 6.498,19.119 6.596,19.021L9.856,15.76C9.902,15.714 9.939,15.659 9.964,15.597C10.015,15.475 10.015,15.338 9.964,15.215C9.939,15.154 9.902,15.098 9.856,15.052L6.596,11.791C6.4,11.596 6.084,11.596 5.889,11.791C5.693,11.986 5.693,12.303 5.889,12.498L8.296,14.906L2.5,14.906L2.5,7.313L11.995,7.313C11.997,7.313 11.998,7.313 12,7.313C12.002,7.313 12.003,7.313 12.005,7.313L13.245,7.313L13.245,23.5ZM14.745,18.694L14.745,6.563C14.745,6.148 14.409,5.813 13.995,5.813L12.75,5.813L12.75,2.5L23.5,2.5L23.5,10.098L17.701,10.098L20.109,7.688C20.305,7.493 20.305,7.177 20.109,6.981C19.914,6.786 19.598,6.786 19.402,6.981L16.141,10.244C16.095,10.29 16.058,10.345 16.033,10.407C15.982,10.529 15.982,10.666 16.033,10.789C16.058,10.85 16.095,10.906 16.141,10.952L19.402,14.214C19.5,14.312 19.628,14.36 19.756,14.36C19.884,14.36 20.012,14.312 20.109,14.214C20.305,14.019 20.305,13.702 20.109,13.507L17.701,11.098L23.5,11.098L23.5,18.694L14.745,18.694Z" style="fill:white;fill-rule:nonzero;"/>
</svg>
