<?xml version="1.0" encoding="UTF-8" standalone="no"?>
<!DOCTYPE svg PUBLIC "-//W3C//DTD SVG 1.1//EN" "http://www.w3.org/Graphics/SVG/1.1/DTD/svg11.dtd">
<svg width="100%" height="100%" viewBox="0 0 511 511" version="1.1" xmlns="http://www.w3.org/2000/svg" xmlns:xlink="http://www.w3.org/1999/xlink" xml:space="preserve" xmlns:serif="http://www.serif.com/" style="fill-rule:evenodd;clip-rule:evenodd;stroke-linejoin:round;stroke-miterlimit:2;">
    <path d="M152.53,353.617C158.035,353.617 162.499,349.149 162.499,343.644L162.499,304.365C162.499,298.86 158.035,294.397 152.53,294.397C147.025,294.397 142.561,298.86 142.561,304.365L142.561,343.644C142.561,349.149 147.025,353.617 152.53,353.617Z" style="fill:rgb(204,203,203);fill-rule:nonzero;"/>
    <path d="M204.37,353.617C209.875,353.617 214.339,349.149 214.339,343.644L214.339,304.365C214.339,298.86 209.875,294.397 204.37,294.397C198.865,294.397 194.401,298.86 194.401,304.365L194.401,343.644C194.401,349.149 198.865,353.617 204.37,353.617Z" style="fill:rgb(204,203,203);fill-rule:nonzero;"/>
    <path d="M256.21,353.617C261.715,353.617 266.182,349.149 266.182,343.644L266.182,304.365C266.182,298.86 261.715,294.397 256.21,294.397C250.705,294.397 246.241,298.86 246.241,304.365L246.241,343.644C246.241,349.149 250.705,353.617 256.21,353.617Z" style="fill:rgb(204,203,203);fill-rule:nonzero;"/>
    <path d="M308.054,353.617C313.558,353.617 318.022,349.149 318.022,343.644L318.022,304.365C318.022,298.86 313.558,294.397 308.054,294.397C302.549,294.397 298.081,298.86 298.081,304.365L298.081,343.644C298.081,349.149 302.549,353.617 308.054,353.617Z" style="fill:rgb(204,203,203);fill-rule:nonzero;"/>
    <path d="M492.985,484.735C483.991,493.725 469.359,493.725 460.369,484.735C452.248,476.614 441.449,472.139 429.964,472.139C418.478,472.139 407.679,476.614 399.558,484.735C391.48,492.813 378.868,493.608 369.862,487.176L369.862,449.226C374.127,450.618 378.63,451.355 383.25,451.355C394.736,451.355 405.535,446.883 413.656,438.759C422.65,429.768 437.277,429.768 446.272,438.759C454.392,446.88 465.192,451.355 476.677,451.355C488.162,451.355 498.961,446.883 507.082,438.759C509.881,435.963 510.657,431.917 509.433,428.416L509.433,359.394C509.433,316.794 474.774,282.135 432.17,282.135L369.862,282.135L369.862,240.264C369.862,234.755 365.398,230.292 359.894,230.292L333.972,230.292L333.972,177.453C333.972,173.839 332.015,170.506 328.853,168.744L241.122,119.894C238.034,118.175 234.268,118.218 231.22,120.011C228.175,121.801 226.303,125.072 226.303,128.604L226.303,160.491L153.391,119.894C150.304,118.175 146.534,118.218 143.489,120.011C140.444,121.801 138.573,125.072 138.573,128.604L138.573,230.292L110.659,230.292L110.659,112.155C110.659,107.649 107.664,103.844 103.559,102.612L103.559,90.128C103.559,87.801 105.454,85.902 107.785,85.902L157.29,85.902C179.079,85.902 196.806,68.179 196.806,46.39C196.806,24.6 179.079,6.873 157.29,6.873L122.085,6.873C114.327,3.076 105.723,0.998 96.861,0.998C87.941,0.998 79.228,3.052 71.329,6.971C64.257,3.095 56.249,0.998 47.86,0.998C20.92,0.998 -0.998,22.916 -0.998,49.855L-0.998,501.46C-0.998,506.965 3.466,511.429 8.971,511.429L359.894,511.429C362.751,511.429 365.321,510.22 367.137,508.295C382.654,514.54 401.102,511.39 413.656,498.836C418.01,494.478 423.804,492.08 429.964,492.08C436.123,492.08 441.913,494.478 446.272,498.836C454.654,507.219 465.663,511.41 476.677,511.41C487.687,511.41 498.7,507.219 507.082,498.836C510.977,494.942 510.977,488.63 507.082,484.735C503.188,480.844 496.88,480.844 492.985,484.735ZM399.558,424.661C395.2,429.02 389.41,431.418 383.25,431.418C378.377,431.418 373.745,429.893 369.862,427.11L369.862,357.901L415.722,357.901C428.088,357.901 438.151,367.964 438.151,380.334L438.151,412.868C424.599,410.26 410.03,414.193 399.558,424.661ZM489.496,359.398L489.496,427.535C485.733,430.057 481.308,431.418 476.677,431.418C470.517,431.418 464.724,429.02 460.369,424.661C459.632,423.924 458.868,423.23 458.092,422.56L458.092,380.334C458.092,360.404 444.26,343.656 425.691,339.161L425.691,302.073L432.17,302.073C463.78,302.073 489.496,327.788 489.496,359.398ZM405.753,302.073L405.753,337.964L369.862,337.964L369.862,302.073L405.753,302.073ZM246.241,145.567L314.034,183.317L314.034,230.292L246.241,230.292L246.241,145.567ZM158.51,145.567L226.303,183.317L226.303,230.292L158.51,230.292L158.51,145.567ZM349.925,250.233L349.925,397.78L110.659,397.78L110.659,250.233L349.925,250.233ZM18.94,397.78L18.94,169.98L90.721,169.98L90.721,397.78L18.94,397.78ZM90.721,122.128L90.721,150.042L18.94,150.042L18.94,122.128L90.721,122.128ZM47.86,20.939C57.041,20.939 65.477,25.154 70.998,32.507C74.304,36.908 80.553,37.797 84.959,34.491C88.877,31.547 90.004,26.273 87.871,22.043C90.791,21.325 93.805,20.935 96.861,20.935C109.021,20.935 120.487,26.881 127.536,36.838C129.477,39.583 132.557,41.052 135.684,41.052C137.672,41.052 139.684,40.456 141.43,39.22C145.446,36.378 146.717,31.111 144.674,26.815L157.294,26.815C168.089,26.815 176.869,35.594 176.869,46.39C176.869,57.185 168.089,65.968 157.294,65.968L107.789,65.968C94.464,65.968 83.625,76.807 83.625,90.132L83.625,102.187L18.94,102.187L18.94,49.855C18.94,33.91 31.914,20.939 47.86,20.939ZM18.94,471.554L97.033,471.554C102.538,471.554 107.002,467.09 107.002,461.581C107.002,456.076 102.538,451.612 97.033,451.612L18.94,451.612L18.94,417.718L349.925,417.718L349.925,491.491L18.94,491.491L18.94,471.554Z" style="fill:rgb(204,203,203);fill-rule:nonzero;"/>
    <path d="M136.908,451.612C134.288,451.612 131.715,452.681 129.859,454.536C128.004,456.388 126.939,458.961 126.939,461.581C126.939,464.205 128.004,466.778 129.859,468.63C131.715,470.486 134.288,471.554 136.908,471.554C139.532,471.554 142.101,470.486 143.957,468.63C145.82,466.778 146.877,464.205 146.877,461.581C146.877,458.961 145.82,456.388 143.957,454.536C142.101,452.681 139.54,451.612 136.908,451.612Z" style="fill:rgb(204,203,203);fill-rule:nonzero;"/>
    <path d="M281.134,85.906L223.313,85.906C217.808,85.906 213.344,81.442 213.344,75.937C213.344,70.432 217.808,65.968 223.313,65.968L281.134,65.968C286.638,65.968 291.102,70.432 291.102,75.937C291.102,81.442 286.638,85.906 281.134,85.906Z" style="fill:rgb(204,203,203);fill-rule:nonzero;"/>
    <path d="M321.013,85.906C318.389,85.906 315.82,84.842 313.964,82.986C312.108,81.134 311.044,78.561 311.044,75.937C311.044,73.317 312.108,70.744 313.964,68.888C315.82,67.025 318.389,65.968 321.013,65.968C323.633,65.968 326.206,67.025 328.061,68.888C329.913,70.744 330.981,73.317 330.981,75.937C330.981,78.561 329.913,81.122 328.061,82.986C326.206,84.842 323.633,85.906 321.013,85.906Z" style="fill:rgb(204,203,203);fill-rule:nonzero;"/>
</svg>
