<?xml version="1.0" encoding="UTF-8" standalone="no"?>
<!DOCTYPE svg PUBLIC "-//W3C//DTD SVG 1.1//EN" "http://www.w3.org/Graphics/SVG/1.1/DTD/svg11.dtd">
<svg width="100%" height="100%" viewBox="0 0 128 128" version="1.1" xmlns="http://www.w3.org/2000/svg" xmlns:xlink="http://www.w3.org/1999/xlink" xml:space="preserve" xmlns:serif="http://www.serif.com/" style="fill-rule:evenodd;clip-rule:evenodd;stroke-linejoin:round;stroke-miterlimit:2;">
    <rect x="17.322" y="72.784" width="10.223" height="10.223" style="fill:rgb(204,203,203);"/>
    <rect x="35.387" y="72.784" width="10.223" height="10.223" style="fill:rgb(204,203,203);"/>
    <rect x="17.322" y="91.225" width="10.223" height="10.223" style="fill:rgb(204,203,203);"/>
    <rect x="35.387" y="91.225" width="10.223" height="10.223" style="fill:rgb(204,203,203);"/>
    <rect x="96.07" y="91.226" width="10.223" height="10.223" style="fill:rgb(204,203,203);"/>
    <rect x="96.07" y="72.785" width="10.223" height="10.223" style="fill:rgb(204,203,203);"/>
    <rect x="40.348" y="36.892" width="10.223" height="10.223" style="fill:rgb(204,203,203);"/>
    <rect x="58.413" y="36.892" width="10.223" height="10.223" style="fill:rgb(204,203,203);"/>
    <path d="M83.33,50.6L83.33,43.207L83.315,43.207L83.315,4.366L25.579,26.302L25.579,50.6L2.02,50.599L2.02,123.633L125.98,123.634L125.98,50.6L83.33,50.6ZM53.965,116.686L8.967,116.686L8.967,57.546L32.526,57.547L32.526,57.546L53.965,57.547L53.965,116.686ZM76.368,43.207L76.194,43.207L76.194,116.687L58.596,116.686L58.596,52.915L32.526,52.915L32.526,31.094L76.368,14.437L76.368,43.207ZM119.033,116.687L83.33,116.687L83.33,57.547L119.033,57.547L119.033,116.687Z" style="fill:rgb(204,203,203);fill-rule:nonzero;"/>
</svg>
