<?xml version="1.0" encoding="UTF-8" standalone="no"?>
<!DOCTYPE svg PUBLIC "-//W3C//DTD SVG 1.1//EN" "http://www.w3.org/Graphics/SVG/1.1/DTD/svg11.dtd">
<svg width="100%" height="100%" viewBox="0 0 24 24" version="1.1" xmlns="http://www.w3.org/2000/svg" xmlns:xlink="http://www.w3.org/1999/xlink" xml:space="preserve" xmlns:serif="http://www.serif.com/" style="fill-rule:evenodd;clip-rule:evenodd;stroke-linejoin:round;stroke-miterlimit:2;">
    <g id="Icon">
        <path d="M19.75,4.042C19.75,3.303 19.462,2.595 18.95,2.073C18.433,1.545 17.731,1.25 17,1.25L7,1.25C6.269,1.25 5.567,1.545 5.05,2.073C4.538,2.595 4.25,3.303 4.25,4.042L4.25,20.979C4.25,21.671 4.648,22.297 5.263,22.585C5.888,22.879 6.623,22.775 7.145,22.319L11.843,18.207C11.933,18.128 12.067,18.128 12.157,18.207L16.855,22.319C17.377,22.775 18.112,22.879 18.737,22.585C19.352,22.297 19.75,21.671 19.75,20.979L19.75,4.042Z" style="fill:rgb(16,18,20);"/>
    </g>
</svg>
