<?xml version="1.0" encoding="UTF-8" standalone="no"?>
<!DOCTYPE svg PUBLIC "-//W3C//DTD SVG 1.1//EN" "http://www.w3.org/Graphics/SVG/1.1/DTD/svg11.dtd">
<svg width="100%" height="100%" viewBox="0 0 512 512" version="1.1" xmlns="http://www.w3.org/2000/svg" xmlns:xlink="http://www.w3.org/1999/xlink" xml:space="preserve" xmlns:serif="http://www.serif.com/" style="fill-rule:evenodd;clip-rule:evenodd;stroke-linejoin:round;stroke-miterlimit:2;">
    <path d="M106.813,490.7C100.678,490.687 94.617,489.36 89.037,486.809C81.538,483.47 75.175,478.016 70.728,471.115C66.281,464.215 63.943,456.167 64,447.958L64,85.333C64.019,68.365 70.767,52.097 82.766,40.099C94.764,28.1 111.032,21.352 128,21.333L384,21.333C400.968,21.352 417.236,28.1 429.234,40.099C441.233,52.097 447.982,68.365 448,85.333L448,447.958C448,456.155 445.639,464.178 441.2,471.068C436.76,477.958 430.43,483.424 422.966,486.811C415.502,490.199 407.221,491.365 399.112,490.17C391.003,488.975 383.409,485.47 377.24,480.073L256,373.99L134.76,480.073C127.049,486.899 117.112,490.678 106.813,490.7ZM256,331.359C266.333,331.341 276.32,335.081 284.1,341.88L405.333,447.958L405.474,448.067L405.333,85.333C405.328,79.677 403.078,74.254 399.079,70.254C395.079,66.255 389.656,64.006 384,64L128,64C122.344,64.006 116.921,66.255 112.921,70.254C108.922,74.254 106.673,79.677 106.667,85.333L106.667,447.958L227.907,341.875C235.684,335.076 245.67,331.338 256,331.359Z" style="fill:rgb(184,186,189);fill-rule:nonzero;"/>
</svg>
