<?xml version="1.0" encoding="UTF-8" standalone="no"?>
<!DOCTYPE svg PUBLIC "-//W3C//DTD SVG 1.1//EN" "http://www.w3.org/Graphics/SVG/1.1/DTD/svg11.dtd">
<svg width="100%" height="100%" viewBox="0 0 24 24" version="1.1" xmlns="http://www.w3.org/2000/svg" xmlns:xlink="http://www.w3.org/1999/xlink" xml:space="preserve" xmlns:serif="http://www.serif.com/" style="fill-rule:evenodd;clip-rule:evenodd;stroke-linejoin:round;stroke-miterlimit:2;">
    <rect x="0" y="0" width="24" height="24" style="fill:white;fill-opacity:0;fill-rule:nonzero;"/>
    <path d="M20.71,19.29L17.31,15.9C18.407,14.503 19.002,12.776 19,11C19,6.611 15.389,3 11,3C6.611,3 3,6.611 3,11C3,15.389 6.611,19 11,19C12.776,19.002 14.503,18.407 15.9,17.31L19.29,20.71C19.478,20.899 19.733,21.006 20,21.006C20.267,21.006 20.522,20.899 20.71,20.71C20.899,20.522 21.006,20.267 21.006,20C21.006,19.733 20.899,19.478 20.71,19.29ZM5,11C5,7.708 7.708,5 11,5C14.292,5 17,7.708 17,11C17,14.292 14.292,17 11,17C7.708,17 5,14.292 5,11Z" style="fill:rgb(194,194,196);fill-rule:nonzero;"/>
</svg>
