<?xml version="1.0" encoding="UTF-8" standalone="no"?>
<!DOCTYPE svg PUBLIC "-//W3C//DTD SVG 1.1//EN" "http://www.w3.org/Graphics/SVG/1.1/DTD/svg11.dtd">
<svg width="100%" height="100%" viewBox="0 0 32 32" version="1.1" xmlns="http://www.w3.org/2000/svg" xmlns:xlink="http://www.w3.org/1999/xlink" xml:space="preserve" xmlns:serif="http://www.serif.com/" style="fill-rule:evenodd;clip-rule:evenodd;stroke-linecap:round;stroke-linejoin:round;stroke-miterlimit:10;">
    <path d="M31,15.5C31,13.6 29.4,12 27.5,12C26.4,12 25.4,12.5 24.8,13.4C22.4,11.9 19.4,11 16,11C12.6,11 9.6,11.9 7.2,13.4C6.6,12.5 5.6,12 4.5,12C2.6,12 1,13.6 1,15.5C1,17 1.9,18.2 3.1,18.7C3.1,19.1 3,19.6 3,20C3,25 8.8,29 16,29C23.2,29 29,25 29,20C29,19.6 28.9,19.1 28.9,18.7C30.1,18.2 31,17 31,15.5Z" style="fill:none;fill-rule:nonzero;stroke:rgb(204,203,203);stroke-width:2px;"/>
    <circle cx="12" cy="19" r="2" style="fill:none;stroke:rgb(204,203,203);stroke-width:2px;"/>
    <circle cx="20" cy="19" r="2" style="fill:none;stroke:rgb(204,203,203);stroke-width:2px;"/>
    <path d="M11,24C11.7,24.6 13.7,25 16,25C18.3,25 20.3,24.6 21,24" style="fill:none;fill-rule:nonzero;stroke:rgb(204,203,203);stroke-width:2px;"/>
    <path d="M16,11L19,5L23,7" style="fill:none;fill-rule:nonzero;stroke:rgb(204,203,203);stroke-width:2px;"/>
    <circle cx="25" cy="8" r="2" style="fill:none;stroke:rgb(204,203,203);stroke-width:2px;"/>
</svg>
